# xmcd
#
# Track frame offsets:
#	150
#	2061
#	22829
#	43475
#	62064
#	94536
#	110960
#	129099
#	148137
#	170705
#	192006
#	219302
#	238099
#	278595
#
# Disc length: 4181 seconds
#
# Revision: 0
# Processed by: cddbd v1.5PL3 Copyright (c) Steve Scherf et al.
# Submitted via: dBpowerAMP V4.0
#
DISCID=c410530e
DTITLE=Pat Cisarano - ah
DYEAR=1900
DGENRE=Blues
TTITLE0=prelude
TTITLE1=All In This Together
TTITLE2=so dedicated
TTITLE3=Ways Of Life
TTITLE4=carried away
TTITLE5=true love
TTITLE6=So Glad You're Gone
TTITLE7=thank god for the blues
TTITLE8=somebody talk to my baby
TTITLE9=love, save the day
TTITLE10=sugar melts in the rain
TTITLE11=hold my hand forever
TTITLE12=I Promise You Peace
TTITLE13=DATA
EXTD=
EXTT0=
EXTT1=
EXTT2=
EXTT3=
EXTT4=
EXTT5=
EXTT6=
EXTT7=
EXTT8=
EXTT9=
EXTT10=
EXTT11=
EXTT12=
EXTT13=
PLAYORDER=
